<?xml version="1.0" encoding="UTF-8"?>
<svg version="1.1" xmlns="http://www.w3.org/2000/svg" width="586" height="585">
<path d="M0 0 C12.88112124 9.63465979 20.34400719 23.07550854 23.40234375 38.796875 C23.67498047 40.05757812 23.67498047 40.05757812 23.953125 41.34375 C26.07813967 57.67864539 24.72746316 74.72397076 21.40234375 90.796875 C21.10432861 92.24030273 21.10432861 92.24030273 20.80029297 93.71289062 C11.38265794 138.04279212 -9.17617492 178.02936272 -33.03222656 216.20092773 C-34.33671055 218.36414955 -35.51315653 220.51774158 -36.59765625 222.796875 C-35.96899658 222.81145752 -35.34033691 222.82604004 -34.69262695 222.84106445 C3.75190468 223.83619868 3.75190468 223.83619868 17.40234375 237.796875 C26.17355134 248.08154587 29.87325132 258.35792723 30.40234375 271.796875 C31.4903125 271.73886719 32.57828125 271.68085938 33.69921875 271.62109375 C46.06687225 271.1565478 55.08124433 272.78196718 64.77734375 281.109375 C74.75218616 290.79648157 80.36187714 301.16576951 80.69555664 315.22924805 C80.867682 337.02816261 73.06897153 353.90288122 57.90625 369.3203125 C57.07996094 370.13757813 56.25367188 370.95484375 55.40234375 371.796875 C52.92272258 374.27649617 53.10739868 375.15304297 52.9453125 378.58203125 C52.88778809 379.57468994 52.83026367 380.56734863 52.77099609 381.59008789 C52.71121582 382.66895264 52.65143555 383.74781738 52.58984375 384.859375 C49.71702065 426.13464604 35.02273292 468.43375727 7.40234375 499.796875 C6.59925781 500.73273438 5.79617188 501.66859375 4.96875 502.6328125 C-10.97432147 520.78950855 -31.40585686 532.01259137 -55.61328125 534.05078125 C-73.37042906 534.44019239 -89.49681829 528.63328439 -104.59765625 519.796875 C-104.59765625 518.806875 -104.59765625 517.816875 -104.59765625 516.796875 C-100.34949574 517.3599596 -96.92195936 518.3879459 -93.03515625 520.171875 C-74.64530154 528.03700446 -56.59210521 528.35878852 -37.94921875 521.26953125 C-28.46231822 517.10104465 -21.02978738 510.90920703 -13.59765625 503.796875 C-12.98277344 503.24515625 -12.36789062 502.6934375 -11.734375 502.125 C17.1385593 475.30967711 28.38871888 428.2896461 31.40234375 390.796875 C30.72824463 391.23153076 30.05414551 391.66618652 29.35961914 392.11401367 C15.54497757 400.8722082 -0.31427095 406.83502073 -15.97265625 411.359375 C-16.79693115 411.59857666 -17.62120605 411.83777832 -18.47045898 412.08422852 C-24.14747961 413.63093229 -29.73360585 414.37491732 -35.59765625 414.796875 C-35.23513192 412.19354517 -34.90039561 411.06022801 -32.88623047 409.30810547 C-32.14904785 408.84807129 -31.41186523 408.38803711 -30.65234375 407.9140625 C-29.83008301 407.39175049 -29.00782227 406.86943848 -28.16064453 406.33129883 C-27.2736084 405.78368896 -26.38657227 405.2360791 -25.47265625 404.671875 C-23.63368284 403.50719184 -21.79514463 402.34182125 -19.95703125 401.17578125 C-18.58901367 400.31557373 -18.58901367 400.31557373 -17.19335938 399.43798828 C1.473806 387.63581694 19.19038109 374.84114186 35.40234375 359.796875 C36.41748047 358.88035156 36.41748047 358.88035156 37.453125 357.9453125 C49.63270072 346.47356783 59.20251592 331.23494669 60.71484375 314.296875 C60.52516221 304.26272143 56.57960932 294.76345763 49.40234375 287.796875 C43.21832849 282.87512015 37.26925862 279.89458405 29.40234375 278.796875 C29.46615234 280.4984375 29.46615234 280.4984375 29.53125 282.234375 C29.5239504 286.98120278 28.58263537 291.23445308 27.33984375 295.796875 C27.11723877 296.6228418 26.89463379 297.44880859 26.6652832 298.29980469 C24.35344404 306.51302121 21.16367436 314.15269085 17.40234375 321.796875 C17.0995752 322.42013672 16.79680664 323.04339844 16.48486328 323.68554688 C8.75583298 339.41365299 -2.14896547 358.29671612 -15.59765625 369.796875 C-16.58765625 370.126875 -17.57765625 370.456875 -18.59765625 370.796875 C-20.46109643 373.46642224 -20.46109643 373.46642224 -22.28515625 376.734375 C-25.91221043 382.85898009 -29.91540123 388.41705954 -34.59765625 393.796875 C-35.12617188 394.40917969 -35.6546875 395.02148438 -36.19921875 395.65234375 C-52.10095444 412.76825138 -74.28116421 419.26899841 -96.59765625 422.796875 C-96.01757812 423.50650391 -96.01757812 423.50650391 -95.42578125 424.23046875 C-86.30621067 435.81051753 -83.51001841 448.17058102 -84.59765625 462.796875 C-85.54210822 469.63947205 -86.8290057 476.44101634 -89.59765625 482.796875 C-90.58765625 482.796875 -91.57765625 482.796875 -92.59765625 482.796875 C-92.56285156 481.64832031 -92.52804687 480.49976563 -92.4921875 479.31640625 C-92.20961361 466.03830202 -93.03296582 454.16784954 -100.59765625 442.796875 C-101.15453125 441.91 -101.71140625 441.023125 -102.28515625 440.109375 C-113.06500409 429.32952716 -130.7681677 426.86003432 -145.49609375 426.6640625 C-161.82797955 426.85737615 -182.47424806 429.80209713 -194.59765625 441.796875 C-195.93539407 443.46000851 -197.27032671 445.12542298 -198.59765625 446.796875 C-199.58765625 446.796875 -200.57765625 446.796875 -201.59765625 446.796875 C-201.29069538 439.42981419 -197.99518212 435.16224166 -192.84375 430.05957031 C-187.97629415 425.67733579 -182.98967482 422.50162694 -177.16015625 419.546875 C-176.36544922 419.12664062 -175.57074219 418.70640625 -174.75195312 418.2734375 C-169.50901549 415.56024927 -164.25080834 413.4910453 -158.59765625 411.796875 C-159.08008789 411.52125732 -159.56251953 411.24563965 -160.05957031 410.96166992 C-175.80090396 401.88401782 -191.45781324 391.98250526 -197.59765625 373.796875 C-197.59765625 372.476875 -197.59765625 371.156875 -197.59765625 369.796875 C-196.27765625 369.796875 -194.95765625 369.796875 -193.59765625 369.796875 C-191.95703125 371.73828125 -191.95703125 371.73828125 -190.34765625 374.359375 C-179.11461667 391.17346162 -157.78732453 399.32837042 -138.68847656 403.39013672 C-113.35603858 408.31818923 -87.70419849 405.80642285 -65.59765625 391.796875 C-46.72678802 378.67048159 -39.03224321 361.08097751 -32.59765625 339.796875 C-33.58765625 340.126875 -34.57765625 340.456875 -35.59765625 340.796875 C-75.09914632 343.0205399 -110.72722378 334.70232844 -141.59765625 308.796875 C-142.48759277 308.05703369 -142.48759277 308.05703369 -143.39550781 307.30224609 C-160.10141222 293.37191711 -160.10141222 293.37191711 -166.59765625 284.796875 C-172.51778747 286.36653336 -177.27899576 289.4438933 -182.41015625 292.671875 C-183.34085937 293.25412842 -184.2715625 293.83638184 -185.23046875 294.4362793 C-206.53691558 307.88214831 -228.73731988 322.93653863 -246.59765625 340.796875 C-248.67064835 389.8576881 -217.51281799 443.4843984 -190.9519043 482.28759766 C-190.39543213 483.10147949 -189.83895996 483.91536133 -189.265625 484.75390625 C-188.77344482 485.46522705 -188.28126465 486.17654785 -187.77416992 486.90942383 C-186.59765625 488.796875 -186.59765625 488.796875 -185.59765625 491.796875 C-183.37470883 492.85417453 -183.37470883 492.85417453 -180.59765625 493.796875 C-178.90843872 494.61430327 -177.21948094 495.43231138 -175.53491211 496.25927734 C-158.87129563 504.37082812 -140.12922823 509.15019307 -121.80078125 503.9921875 C-110.95242259 500.10985872 -110.95242259 500.10985872 -101.59765625 493.796875 C-99.9314851 493.75623668 -98.2637753 493.754154 -96.59765625 493.796875 C-96.9517279 496.53943 -97.41340533 497.62421219 -99.4609375 499.54296875 C-116.74883095 511.48181702 -135.92079203 514.69697839 -156.48828125 511.6484375 C-164.12250555 510.18884476 -171.38393043 507.64462205 -178.59765625 504.796875 C-179.78746094 504.33925781 -180.97726563 503.88164063 -182.203125 503.41015625 C-192.42973688 498.75503185 -197.55172949 490.85084429 -203.59765625 481.796875 C-204.59479464 480.34918501 -205.59349393 478.9025689 -206.59375 477.45703125 C-232.57289296 439.55476676 -254.12805381 397.75693071 -260.59765625 351.796875 C-260.72785156 350.8996875 -260.85804688 350.0025 -260.9921875 349.078125 C-261.26134302 346.98230072 -261.43749765 344.90333499 -261.59765625 342.796875 C-261.67516113 342.09369141 -261.75266602 341.39050781 -261.83251953 340.66601562 C-262.04794342 337.44389994 -262.20644014 334.84824235 -260.55493164 331.99609375 C-259.05565694 330.29417239 -257.4857083 328.79751555 -255.78515625 327.296875 C-255.19130127 326.74064453 -254.59744629 326.18441406 -253.9855957 325.61132812 C-248.73232628 320.74940163 -243.21143742 316.23345435 -237.59765625 311.796875 C-236.40407434 310.81644477 -235.21280925 309.83318963 -234.0234375 308.84765625 C-182.26596455 266.05614797 -182.26596455 266.05614797 -163.81640625 264.4765625 C-157.9902561 265.31766164 -154.64137409 269.71356859 -150.97265625 273.921875 C-145.62445034 279.86588258 -139.99620091 284.97629122 -133.59765625 289.796875 C-132.56382812 290.59609375 -131.53 291.3953125 -130.46484375 292.21875 C-113.76101254 304.85129944 -95.58537832 312.14589598 -75.59765625 317.796875 C-75.62085938 316.77851563 -75.6440625 315.76015625 -75.66796875 314.7109375 C-76.10082267 287.70602121 -72.60157495 252.88829383 -54.3359375 231.5859375 C-53.02270654 230.23434249 -51.64365837 228.94627869 -50.23706055 227.69213867 C-47.10032979 224.25133855 -45.47689247 220.91250273 -43.62890625 216.68359375 C-43.27167984 215.89000458 -42.91445343 215.09641541 -42.54640198 214.27877808 C-41.38419037 211.68606391 -40.23998713 209.0859035 -39.09765625 206.484375 C-38.29245452 204.66844165 -37.48703221 202.85260609 -36.68139648 201.03686523 C0.70185626 121.08935298 0.70185626 121.08935298 -0.4765625 36.21484375 C-4.13994007 27.21734318 -9.72869535 20.05731776 -18.59765625 15.796875 C-27.53588602 12.88195447 -34.83119726 13.75896442 -43.16015625 17.859375 C-52.47129972 23.42652721 -57.03863648 31.38608544 -60.11621094 41.5012207 C-60.76622861 44.60067112 -60.85826452 47.62490357 -60.9921875 50.7890625 C-61.05800554 52.21496379 -61.12469421 53.6408251 -61.19213867 55.06665039 C-61.22697357 55.81641144 -61.26180847 56.56617249 -61.29769897 57.33865356 C-63.88658889 111.05197209 -75.30762267 166.09214376 -98.59765625 214.796875 C-98.92088867 215.48958496 -99.24412109 216.18229492 -99.57714844 216.89599609 C-104.8840305 228.25166762 -110.75852248 239.11703477 -119.78515625 247.984375 C-121.67778079 250.10095279 -122.54861548 251.12944204 -122.7578125 253.9765625 C-122.28700875 256.7117081 -121.50537747 259.17260703 -120.59765625 261.796875 C-120.23542969 262.99183594 -119.87320313 264.18679688 -119.5 265.41796875 C-117.41463894 272.17375003 -114.98816655 278.55962741 -111.515625 284.74609375 C-110.59765625 286.796875 -110.59765625 286.796875 -110.59765625 290.796875 C-113.09003257 290.43003173 -114.352167 290.03870023 -116.16796875 288.25 C-154.15270409 234.42238509 -161.86637343 149.1335095 -168.78125 85.36328125 C-168.86978241 84.5510762 -168.95831482 83.73887115 -169.04953003 82.90205383 C-169.45356996 79.15038752 -169.83603413 75.39845948 -170.18066406 71.64086914 C-171.31223603 59.52010845 -171.31223603 59.52010845 -177.859375 49.67578125 C-189.98430946 43.09590538 -200.98242167 42.41759283 -214.34375 45.74609375 C-224.93698365 49.16695792 -233.4613304 54.84290045 -238.59765625 64.796875 C-242.85200461 76.14180397 -239.69842152 86.33772352 -234.9609375 97.00390625 C-233.94911951 99.20808165 -232.93198646 101.40982325 -231.91015625 103.609375 C-210.02573984 151.94020613 -197.15417971 206.95238329 -197.53515625 260.171875 C-197.53966797 261.39648438 -197.54417969 262.62109375 -197.54882812 263.8828125 C-197.56043519 266.85422144 -197.57675838 269.82551943 -197.59765625 272.796875 C-198.58765625 272.796875 -199.57765625 272.796875 -200.59765625 272.796875 C-200.69151611 272.14879883 -200.78537598 271.50072266 -200.88208008 270.83300781 C-206.34272959 234.22678198 -216.10132882 198.59441067 -228.59765625 163.796875 C-228.98050781 162.72421387 -229.36335938 161.65155273 -229.7578125 160.54638672 C-235.5632579 144.41806678 -242.45023827 128.84557478 -250.3046875 113.61328125 C-259.24669834 96.18615063 -265.93079628 77.97453068 -260.03515625 58.296875 C-254.08817613 43.40863107 -243.9313856 33.70089623 -229.59765625 26.796875 C-211.137273 19.88992888 -189.7003017 18.81758341 -171.47265625 26.921875 C-162.30668763 31.86647965 -154.9019464 38.76009365 -151.59765625 48.796875 C-149.98127292 55.66831198 -149.11555847 62.51467038 -148.51953125 69.5390625 C-148.32977023 71.65146478 -148.13982029 73.76385009 -147.94970703 75.8762207 C-147.80326752 77.53435287 -147.80326752 77.53435287 -147.65386963 79.22598267 C-142.32386881 163.59405384 -142.32386881 163.59405384 -124.59765625 245.796875 C-102.08880948 211.49767993 -94.67952443 165.7437183 -88.59765625 125.796875 C-88.49688782 125.13685486 -88.39611938 124.47683472 -88.29229736 123.79681396 C-84.74726137 100.38253364 -82.21613345 76.51245005 -82.66015625 52.796875 C-82.97975322 34.82164796 -78.00551934 19.02081395 -65.59765625 5.796875 C-47.64747898 -10.71941237 -20.4700188 -13.40338346 0 0 Z M-41.53515625 247.421875 C-54.73105161 264.83070792 -69.59765625 296.83472287 -69.59765625 318.796875 C-48.07042721 322.83526592 -26.27011014 316.26688751 -5.59765625 310.796875 C-5.72406494 311.65442383 -5.85047363 312.51197266 -5.98071289 313.39550781 C-6.44716109 316.5852444 -6.90668543 319.77588095 -7.36157227 322.96728516 C-7.55965735 324.34691621 -7.76047733 325.72615752 -7.96411133 327.10498047 C-8.25674924 329.08976668 -8.53866229 331.0761248 -8.8203125 333.0625 C-8.99312744 334.25649414 -9.16594238 335.45048828 -9.34399414 336.68066406 C-9.56880372 339.44242482 -9.49550122 341.21242405 -8.59765625 343.796875 C-2.44758051 329.01479385 3.34681183 314.30265172 7.40234375 298.796875 C7.66789062 297.80300781 7.9334375 296.80914062 8.20703125 295.78515625 C11.09519051 282.86756722 11.35570015 268.19201557 4.15234375 256.82421875 C-0.9547843 249.99053321 -9.41238592 246.43392907 -17.59765625 244.796875 C-30.38182852 242.75489634 -30.38182852 242.75489634 -41.53515625 247.421875 Z M-10.59765625 344.796875 C-9.59765625 346.796875 -9.59765625 346.796875 -9.59765625 346.796875 Z " fill="#323232" transform="translate(397.59765625,12.203125)"/>
<path d="M0 0 C4.84659077 0.59104765 8.60748167 1.97944157 13 4 C12.01 4.33 11.02 4.66 10 5 C10.33 5.99 10.66 6.98 11 8 C6.97488434 6.78310457 3.40742883 5.50546238 0 3 C0 2.01 0 1.02 0 0 Z " fill="#606060" transform="translate(293,529)"/>
<path d="M0 0 C0.99 0.66 1.98 1.32 3 2 C2.33392561 6.40958108 0.73375271 10.26572186 -1.0625 14.3125 C-1.34416016 14.95767578 -1.62582031 15.60285156 -1.91601562 16.26757812 C-2.6062743 17.84698358 -3.30253198 19.42376493 -4 21 C-5.09178911 17.72463268 -4.93042848 16.95586381 -4.00390625 13.76953125 C-3.77509766 12.96708984 -3.54628906 12.16464844 -3.31054688 11.33789062 C-2.94026367 10.08782227 -2.94026367 10.08782227 -2.5625 8.8125 C-2.31951172 7.96751953 -2.07652344 7.12253906 -1.82617188 6.25195312 C-1.22506507 4.1657589 -0.61352166 2.08257699 0 0 Z M0 5 C1 7 1 7 1 7 Z " fill="#717171" transform="translate(387,352)"/>
<path d="M0 0 C3.96 1.98 3.96 1.98 8 4 C8 4.33 8 4.66 8 5 C5.69 4.67 3.38 4.34 1 4 C0.67 2.68 0.34 1.36 0 0 Z " fill="#424242" transform="translate(293,529)"/>
<path d="M0 0 C0.33 0.66 0.66 1.32 1 2 C1.99 2.33 2.98 2.66 4 3 C3.401875 3.226875 2.80375 3.45375 2.1875 3.6875 C-0.56351888 5.33811133 -1.52484637 7.1972081 -3 10 C-3.33 9.34 -3.66 8.68 -4 8 C-3.22265625 6.0546875 -3.22265625 6.0546875 -2.0625 3.875 C-1.49208984 2.78832031 -1.49208984 2.78832031 -0.91015625 1.6796875 C-0.60980469 1.12539063 -0.30945313 0.57109375 0 0 Z " fill="#656565" transform="translate(379,378)"/>
</svg>
